<mxfile host="app.diagrams.net" agent="Mozilla/5.0 (Windows NT 10.0; Win64; x64) AppleWebKit/537.36 (KHTML, like Gecko) Chrome/126.0.0.0 Safari/537.36 OPR/112.0.0.0" version="24.7.14">
  <diagram id="C5RBs43oDa-KdzZeNtuy" name="Page-1">
    <mxGraphModel dx="2329" dy="1236" grid="1" gridSize="10" guides="1" tooltips="1" connect="1" arrows="1" fold="1" page="1" pageScale="1" pageWidth="827" pageHeight="1169" math="0" shadow="0">
      <root>
        <mxCell id="WIyWlLk6GJQsqaUBKTNV-0" />
        <mxCell id="WIyWlLk6GJQsqaUBKTNV-1" parent="WIyWlLk6GJQsqaUBKTNV-0" />
        <mxCell id="1WxUAbwwoIR5ukUB5O0--5" value="Khai báo chân module cảm biến độ&lt;div style=&quot;&quot;&gt;ẩm&lt;/div&gt;" style="rounded=0;whiteSpace=wrap;html=1;align=center;" parent="WIyWlLk6GJQsqaUBKTNV-1" vertex="1">
          <mxGeometry x="120" y="290" width="120" height="60" as="geometry" />
        </mxCell>
        <mxCell id="1Kg0y6q0fFG1aNWEQ2B7-90" value="" style="edgeStyle=orthogonalEdgeStyle;rounded=0;orthogonalLoop=1;jettySize=auto;html=1;" parent="WIyWlLk6GJQsqaUBKTNV-1" source="1WxUAbwwoIR5ukUB5O0--7" target="1Kg0y6q0fFG1aNWEQ2B7-89" edge="1">
          <mxGeometry relative="1" as="geometry" />
        </mxCell>
        <mxCell id="1WxUAbwwoIR5ukUB5O0--7" value="Khai báo các thư viện" style="rounded=0;whiteSpace=wrap;html=1;" parent="WIyWlLk6GJQsqaUBKTNV-1" vertex="1">
          <mxGeometry x="120" y="110" width="120" height="60" as="geometry" />
        </mxCell>
        <mxCell id="1WxUAbwwoIR5ukUB5O0--11" value="" style="edgeStyle=orthogonalEdgeStyle;rounded=0;orthogonalLoop=1;jettySize=auto;html=1;" parent="WIyWlLk6GJQsqaUBKTNV-1" target="1WxUAbwwoIR5ukUB5O0--7" edge="1">
          <mxGeometry relative="1" as="geometry">
            <mxPoint x="180" y="80" as="sourcePoint" />
          </mxGeometry>
        </mxCell>
        <mxCell id="1Kg0y6q0fFG1aNWEQ2B7-76" value="" style="edgeStyle=orthogonalEdgeStyle;rounded=0;orthogonalLoop=1;jettySize=auto;html=1;" parent="WIyWlLk6GJQsqaUBKTNV-1" source="1Kg0y6q0fFG1aNWEQ2B7-71" edge="1">
          <mxGeometry relative="1" as="geometry">
            <mxPoint x="605" y="200" as="targetPoint" />
          </mxGeometry>
        </mxCell>
        <mxCell id="1Kg0y6q0fFG1aNWEQ2B7-71" value="Khai báo địa chỉ url" style="rounded=0;whiteSpace=wrap;html=1;" parent="WIyWlLk6GJQsqaUBKTNV-1" vertex="1">
          <mxGeometry x="545" y="110" width="120" height="60" as="geometry" />
        </mxCell>
        <mxCell id="1Kg0y6q0fFG1aNWEQ2B7-72" value="" style="edgeStyle=orthogonalEdgeStyle;rounded=0;orthogonalLoop=1;jettySize=auto;html=1;" parent="WIyWlLk6GJQsqaUBKTNV-1" target="1Kg0y6q0fFG1aNWEQ2B7-71" edge="1">
          <mxGeometry relative="1" as="geometry">
            <mxPoint x="605" y="80" as="sourcePoint" />
          </mxGeometry>
        </mxCell>
        <mxCell id="1Kg0y6q0fFG1aNWEQ2B7-74" value="send_http&amp;nbsp;" style="text;html=1;align=center;verticalAlign=middle;resizable=0;points=[];autosize=1;strokeColor=none;fillColor=none;" parent="WIyWlLk6GJQsqaUBKTNV-1" vertex="1">
          <mxGeometry x="470" y="10" width="80" height="30" as="geometry" />
        </mxCell>
        <mxCell id="1Kg0y6q0fFG1aNWEQ2B7-92" value="" style="edgeStyle=orthogonalEdgeStyle;rounded=0;orthogonalLoop=1;jettySize=auto;html=1;" parent="WIyWlLk6GJQsqaUBKTNV-1" source="1Kg0y6q0fFG1aNWEQ2B7-89" target="1WxUAbwwoIR5ukUB5O0--5" edge="1">
          <mxGeometry relative="1" as="geometry" />
        </mxCell>
        <mxCell id="1Kg0y6q0fFG1aNWEQ2B7-89" value="Khai báo API key write" style="rounded=0;whiteSpace=wrap;html=1;" parent="WIyWlLk6GJQsqaUBKTNV-1" vertex="1">
          <mxGeometry x="120" y="200" width="120" height="60" as="geometry" />
        </mxCell>
        <mxCell id="1Kg0y6q0fFG1aNWEQ2B7-93" value="" style="edgeStyle=orthogonalEdgeStyle;rounded=0;orthogonalLoop=1;jettySize=auto;html=1;" parent="WIyWlLk6GJQsqaUBKTNV-1" edge="1">
          <mxGeometry relative="1" as="geometry">
            <mxPoint x="180" y="380" as="targetPoint" />
            <mxPoint x="180" y="350" as="sourcePoint" />
          </mxGeometry>
        </mxCell>
        <mxCell id="1Kg0y6q0fFG1aNWEQ2B7-94" value="" style="edgeStyle=orthogonalEdgeStyle;rounded=0;orthogonalLoop=1;jettySize=auto;html=1;" parent="WIyWlLk6GJQsqaUBKTNV-1" edge="1">
          <mxGeometry relative="1" as="geometry">
            <mxPoint x="180" y="480" as="targetPoint" />
            <mxPoint x="180" y="440" as="sourcePoint" />
          </mxGeometry>
        </mxCell>
        <mxCell id="JUYjfy3WTnw4ZEzhVMGz-3" value="" style="edgeStyle=orthogonalEdgeStyle;rounded=0;orthogonalLoop=1;jettySize=auto;html=1;" parent="WIyWlLk6GJQsqaUBKTNV-1" source="JUYjfy3WTnw4ZEzhVMGz-0" target="JUYjfy3WTnw4ZEzhVMGz-2" edge="1">
          <mxGeometry relative="1" as="geometry" />
        </mxCell>
        <mxCell id="JUYjfy3WTnw4ZEzhVMGz-0" value="&lt;span style=&quot;color: rgb(0, 0, 0); font-family: Helvetica; font-size: 12px; font-style: normal; font-variant-ligatures: normal; font-variant-caps: normal; font-weight: 400; letter-spacing: normal; orphans: 2; text-align: center; text-indent: 0px; text-transform: none; widows: 2; word-spacing: 0px; -webkit-text-stroke-width: 0px; white-space: normal; background-color: rgb(251, 251, 251); text-decoration-thickness: initial; text-decoration-style: initial; text-decoration-color: initial; display: inline !important; float: none;&quot;&gt;Đọc giá trị&amp;nbsp;&lt;/span&gt;&lt;span style=&quot;forced-color-adjust: none; color: rgb(0, 0, 0); font-family: Helvetica; font-size: 12px; font-style: normal; font-variant-ligatures: normal; font-variant-caps: normal; font-weight: 400; letter-spacing: normal; orphans: 2; text-align: center; text-indent: 0px; text-transform: none; widows: 2; word-spacing: 0px; -webkit-text-stroke-width: 0px; white-space: normal; background-color: initial; text-decoration-thickness: initial; text-decoration-style: initial; text-decoration-color: initial;&quot;&gt;từ&amp;nbsp;&lt;/span&gt;&lt;div style=&quot;forced-color-adjust: none; color: rgb(0, 0, 0); font-family: Helvetica; font-size: 12px; font-style: normal; font-variant-ligatures: normal; font-variant-caps: normal; font-weight: 400; letter-spacing: normal; orphans: 2; text-align: center; text-indent: 0px; text-transform: none; widows: 2; word-spacing: 0px; -webkit-text-stroke-width: 0px; white-space: normal; background-color: rgb(251, 251, 251); text-decoration-thickness: initial; text-decoration-style: initial; text-decoration-color: initial;&quot;&gt;&lt;span style=&quot;forced-color-adjust: none; background-color: initial;&quot;&gt;cảm biến&lt;/span&gt;&lt;/div&gt;" style="rounded=0;whiteSpace=wrap;html=1;" parent="WIyWlLk6GJQsqaUBKTNV-1" vertex="1">
          <mxGeometry x="120" y="480" width="120" height="60" as="geometry" />
        </mxCell>
        <mxCell id="JUYjfy3WTnw4ZEzhVMGz-1" value="Tạo giá trị ngẫu nhiên" style="rounded=0;whiteSpace=wrap;html=1;" parent="WIyWlLk6GJQsqaUBKTNV-1" vertex="1">
          <mxGeometry x="120" y="380" width="120" height="60" as="geometry" />
        </mxCell>
        <mxCell id="JUYjfy3WTnw4ZEzhVMGz-5" value="" style="edgeStyle=orthogonalEdgeStyle;rounded=0;orthogonalLoop=1;jettySize=auto;html=1;" parent="WIyWlLk6GJQsqaUBKTNV-1" source="JUYjfy3WTnw4ZEzhVMGz-2" target="JUYjfy3WTnw4ZEzhVMGz-4" edge="1">
          <mxGeometry relative="1" as="geometry" />
        </mxCell>
        <mxCell id="JUYjfy3WTnw4ZEzhVMGz-8" value="" style="edgeStyle=orthogonalEdgeStyle;rounded=0;orthogonalLoop=1;jettySize=auto;html=1;" parent="WIyWlLk6GJQsqaUBKTNV-1" source="JUYjfy3WTnw4ZEzhVMGz-2" target="JUYjfy3WTnw4ZEzhVMGz-7" edge="1">
          <mxGeometry relative="1" as="geometry" />
        </mxCell>
        <mxCell id="JUYjfy3WTnw4ZEzhVMGz-2" value="nhiệt độ&amp;lt;=0 hoặc rỗng&lt;div&gt;Hoặc&lt;/div&gt;&lt;div&gt;độ ẩm&amp;lt;=0 hoặc rỗng&amp;nbsp;&lt;/div&gt;" style="rhombus;whiteSpace=wrap;html=1;" parent="WIyWlLk6GJQsqaUBKTNV-1" vertex="1">
          <mxGeometry x="95" y="560" width="170" height="170" as="geometry" />
        </mxCell>
        <mxCell id="kKb7byAXvP9piWJfjQB5-71" style="edgeStyle=orthogonalEdgeStyle;rounded=0;orthogonalLoop=1;jettySize=auto;html=1;exitX=1;exitY=0.5;exitDx=0;exitDy=0;entryX=1;entryY=0.5;entryDx=0;entryDy=0;" edge="1" parent="WIyWlLk6GJQsqaUBKTNV-1" source="JUYjfy3WTnw4ZEzhVMGz-4" target="JUYjfy3WTnw4ZEzhVMGz-7">
          <mxGeometry relative="1" as="geometry" />
        </mxCell>
        <mxCell id="JUYjfy3WTnw4ZEzhVMGz-4" value="&lt;span style=&quot;color: rgb(0, 0, 0); font-family: Helvetica; font-size: 12px; font-style: normal; font-variant-ligatures: normal; font-variant-caps: normal; font-weight: 400; letter-spacing: normal; orphans: 2; text-align: center; text-indent: 0px; text-transform: none; widows: 2; word-spacing: 0px; -webkit-text-stroke-width: 0px; white-space: normal; background-color: rgb(251, 251, 251); text-decoration-thickness: initial; text-decoration-style: initial; text-decoration-color: initial; display: inline !important; float: none;&quot;&gt;Đọc giá trị&amp;nbsp;&lt;/span&gt;&lt;span style=&quot;forced-color-adjust: none; color: rgb(0, 0, 0); font-family: Helvetica; font-size: 12px; font-style: normal; font-variant-ligatures: normal; font-variant-caps: normal; font-weight: 400; letter-spacing: normal; orphans: 2; text-align: center; text-indent: 0px; text-transform: none; widows: 2; word-spacing: 0px; -webkit-text-stroke-width: 0px; white-space: normal; background-color: initial; text-decoration-thickness: initial; text-decoration-style: initial; text-decoration-color: initial;&quot;&gt;từ&amp;nbsp;&lt;/span&gt;&lt;div style=&quot;forced-color-adjust: none; color: rgb(0, 0, 0); font-family: Helvetica; font-size: 12px; font-style: normal; font-variant-ligatures: normal; font-variant-caps: normal; font-weight: 400; letter-spacing: normal; orphans: 2; text-align: center; text-indent: 0px; text-transform: none; widows: 2; word-spacing: 0px; -webkit-text-stroke-width: 0px; white-space: normal; background-color: rgb(251, 251, 251); text-decoration-thickness: initial; text-decoration-style: initial; text-decoration-color: initial;&quot;&gt;&lt;span style=&quot;forced-color-adjust: none; background-color: initial;&quot;&gt;cảm biến&lt;/span&gt;&lt;/div&gt;" style="rounded=0;whiteSpace=wrap;html=1;" parent="WIyWlLk6GJQsqaUBKTNV-1" vertex="1">
          <mxGeometry x="320" y="615" width="120" height="60" as="geometry" />
        </mxCell>
        <mxCell id="JUYjfy3WTnw4ZEzhVMGz-11" value="" style="edgeStyle=orthogonalEdgeStyle;rounded=0;orthogonalLoop=1;jettySize=auto;html=1;" parent="WIyWlLk6GJQsqaUBKTNV-1" source="JUYjfy3WTnw4ZEzhVMGz-6" target="JUYjfy3WTnw4ZEzhVMGz-10" edge="1">
          <mxGeometry relative="1" as="geometry" />
        </mxCell>
        <mxCell id="JUYjfy3WTnw4ZEzhVMGz-13" value="" style="edgeStyle=orthogonalEdgeStyle;rounded=0;orthogonalLoop=1;jettySize=auto;html=1;" parent="WIyWlLk6GJQsqaUBKTNV-1" source="JUYjfy3WTnw4ZEzhVMGz-6" edge="1">
          <mxGeometry relative="1" as="geometry">
            <mxPoint x="319.9999999999999" y="945" as="targetPoint" />
          </mxGeometry>
        </mxCell>
        <mxCell id="JUYjfy3WTnw4ZEzhVMGz-6" value="exception xảy ra" style="rhombus;whiteSpace=wrap;html=1;" parent="WIyWlLk6GJQsqaUBKTNV-1" vertex="1">
          <mxGeometry x="115" y="880" width="130" height="130" as="geometry" />
        </mxCell>
        <mxCell id="JUYjfy3WTnw4ZEzhVMGz-9" value="" style="edgeStyle=orthogonalEdgeStyle;rounded=0;orthogonalLoop=1;jettySize=auto;html=1;" parent="WIyWlLk6GJQsqaUBKTNV-1" source="JUYjfy3WTnw4ZEzhVMGz-7" target="JUYjfy3WTnw4ZEzhVMGz-6" edge="1">
          <mxGeometry relative="1" as="geometry" />
        </mxCell>
        <mxCell id="JUYjfy3WTnw4ZEzhVMGz-7" value="try send_http" style="shape=process;whiteSpace=wrap;html=1;backgroundOutline=1;" parent="WIyWlLk6GJQsqaUBKTNV-1" vertex="1">
          <mxGeometry x="120" y="780" width="120" height="60" as="geometry" />
        </mxCell>
        <mxCell id="JUYjfy3WTnw4ZEzhVMGz-10" value="delay 20s" style="rounded=0;whiteSpace=wrap;html=1;" parent="WIyWlLk6GJQsqaUBKTNV-1" vertex="1">
          <mxGeometry x="120" y="1050" width="120" height="60" as="geometry" />
        </mxCell>
        <mxCell id="JUYjfy3WTnw4ZEzhVMGz-14" value="Đúng" style="text;html=1;align=center;verticalAlign=middle;resizable=0;points=[];autosize=1;strokeColor=none;fillColor=none;" parent="WIyWlLk6GJQsqaUBKTNV-1" vertex="1">
          <mxGeometry x="265" y="610" width="50" height="30" as="geometry" />
        </mxCell>
        <mxCell id="JUYjfy3WTnw4ZEzhVMGz-15" value="Đúng" style="text;html=1;align=center;verticalAlign=middle;resizable=0;points=[];autosize=1;strokeColor=none;fillColor=none;" parent="WIyWlLk6GJQsqaUBKTNV-1" vertex="1">
          <mxGeometry x="260" y="910" width="50" height="30" as="geometry" />
        </mxCell>
        <mxCell id="JUYjfy3WTnw4ZEzhVMGz-16" value="Sai" style="text;html=1;align=center;verticalAlign=middle;resizable=0;points=[];autosize=1;strokeColor=none;fillColor=none;" parent="WIyWlLk6GJQsqaUBKTNV-1" vertex="1">
          <mxGeometry x="195" y="730" width="40" height="30" as="geometry" />
        </mxCell>
        <mxCell id="JUYjfy3WTnw4ZEzhVMGz-17" value="Sai" style="text;html=1;align=center;verticalAlign=middle;resizable=0;points=[];autosize=1;strokeColor=none;fillColor=none;" parent="WIyWlLk6GJQsqaUBKTNV-1" vertex="1">
          <mxGeometry x="190" y="1010" width="40" height="30" as="geometry" />
        </mxCell>
        <mxCell id="JUYjfy3WTnw4ZEzhVMGz-20" value="" style="endArrow=classic;html=1;rounded=0;exitX=0;exitY=0.5;exitDx=0;exitDy=0;" parent="WIyWlLk6GJQsqaUBKTNV-1" source="JUYjfy3WTnw4ZEzhVMGz-10" edge="1">
          <mxGeometry width="50" height="50" relative="1" as="geometry">
            <mxPoint x="30" y="1080" as="sourcePoint" />
            <mxPoint x="180" y="360" as="targetPoint" />
            <Array as="points">
              <mxPoint x="30" y="1080" />
              <mxPoint x="30" y="360" />
            </Array>
          </mxGeometry>
        </mxCell>
        <mxCell id="JUYjfy3WTnw4ZEzhVMGz-23" value="" style="edgeStyle=orthogonalEdgeStyle;rounded=0;orthogonalLoop=1;jettySize=auto;html=1;" parent="WIyWlLk6GJQsqaUBKTNV-1" source="JUYjfy3WTnw4ZEzhVMGz-21" target="JUYjfy3WTnw4ZEzhVMGz-22" edge="1">
          <mxGeometry relative="1" as="geometry" />
        </mxCell>
        <mxCell id="JUYjfy3WTnw4ZEzhVMGz-21" value="Lưu giá trị ngẫu nhiên, nhiệt độ và độ ẩm lần lượt vào field 1, 2, và 3&amp;nbsp;" style="whiteSpace=wrap;html=1;" parent="WIyWlLk6GJQsqaUBKTNV-1" vertex="1">
          <mxGeometry x="545" y="200" width="120" height="60" as="geometry" />
        </mxCell>
        <mxCell id="JUYjfy3WTnw4ZEzhVMGz-25" value="" style="edgeStyle=orthogonalEdgeStyle;rounded=0;orthogonalLoop=1;jettySize=auto;html=1;" parent="WIyWlLk6GJQsqaUBKTNV-1" source="JUYjfy3WTnw4ZEzhVMGz-22" target="JUYjfy3WTnw4ZEzhVMGz-24" edge="1">
          <mxGeometry relative="1" as="geometry" />
        </mxCell>
        <mxCell id="JUYjfy3WTnw4ZEzhVMGz-22" value="Tạo yêu cầu gửi dữ liệu lên Thingspeak thông qua HTTP&amp;nbsp;" style="whiteSpace=wrap;html=1;" parent="WIyWlLk6GJQsqaUBKTNV-1" vertex="1">
          <mxGeometry x="545" y="290" width="120" height="60" as="geometry" />
        </mxCell>
        <mxCell id="JUYjfy3WTnw4ZEzhVMGz-27" value="" style="edgeStyle=orthogonalEdgeStyle;rounded=0;orthogonalLoop=1;jettySize=auto;html=1;" parent="WIyWlLk6GJQsqaUBKTNV-1" source="JUYjfy3WTnw4ZEzhVMGz-24" target="JUYjfy3WTnw4ZEzhVMGz-26" edge="1">
          <mxGeometry relative="1" as="geometry" />
        </mxCell>
        <mxCell id="JUYjfy3WTnw4ZEzhVMGz-24" value="Thêm header content-type và kiểu mã hoá mặc định" style="whiteSpace=wrap;html=1;" parent="WIyWlLk6GJQsqaUBKTNV-1" vertex="1">
          <mxGeometry x="545" y="380" width="120" height="60" as="geometry" />
        </mxCell>
        <mxCell id="JUYjfy3WTnw4ZEzhVMGz-29" value="" style="edgeStyle=orthogonalEdgeStyle;rounded=0;orthogonalLoop=1;jettySize=auto;html=1;" parent="WIyWlLk6GJQsqaUBKTNV-1" source="JUYjfy3WTnw4ZEzhVMGz-26" target="JUYjfy3WTnw4ZEzhVMGz-28" edge="1">
          <mxGeometry relative="1" as="geometry" />
        </mxCell>
        <mxCell id="JUYjfy3WTnw4ZEzhVMGz-26" value="Thêm header API key của Thingspeak" style="whiteSpace=wrap;html=1;" parent="WIyWlLk6GJQsqaUBKTNV-1" vertex="1">
          <mxGeometry x="545" y="470" width="120" height="60" as="geometry" />
        </mxCell>
        <mxCell id="JUYjfy3WTnw4ZEzhVMGz-31" value="" style="edgeStyle=orthogonalEdgeStyle;rounded=0;orthogonalLoop=1;jettySize=auto;html=1;" parent="WIyWlLk6GJQsqaUBKTNV-1" source="JUYjfy3WTnw4ZEzhVMGz-28" target="JUYjfy3WTnw4ZEzhVMGz-30" edge="1">
          <mxGeometry relative="1" as="geometry" />
        </mxCell>
        <mxCell id="JUYjfy3WTnw4ZEzhVMGz-28" value="Gửi dữ liệu đã được&amp;nbsp;&lt;div&gt;đóng gói lên Thingspeak&amp;nbsp;&lt;/div&gt;&lt;div&gt;và lưu phản hồi&lt;/div&gt;" style="shape=parallelogram;perimeter=parallelogramPerimeter;whiteSpace=wrap;html=1;fixedSize=1;" parent="WIyWlLk6GJQsqaUBKTNV-1" vertex="1">
          <mxGeometry x="525" y="560" width="160" height="80" as="geometry" />
        </mxCell>
        <mxCell id="JUYjfy3WTnw4ZEzhVMGz-30" value="End" style="ellipse;whiteSpace=wrap;html=1;" parent="WIyWlLk6GJQsqaUBKTNV-1" vertex="1">
          <mxGeometry x="545" y="670" width="120" height="80" as="geometry" />
        </mxCell>
        <mxCell id="JUYjfy3WTnw4ZEzhVMGz-33" value="Begin" style="ellipse;whiteSpace=wrap;html=1;" parent="WIyWlLk6GJQsqaUBKTNV-1" vertex="1">
          <mxGeometry x="545" width="120" height="80" as="geometry" />
        </mxCell>
        <mxCell id="JUYjfy3WTnw4ZEzhVMGz-34" value="Begin" style="ellipse;whiteSpace=wrap;html=1;" parent="WIyWlLk6GJQsqaUBKTNV-1" vertex="1">
          <mxGeometry x="120" width="120" height="80" as="geometry" />
        </mxCell>
        <mxCell id="JUYjfy3WTnw4ZEzhVMGz-80" value="Khai báo chân module buzzer, led, relay, LCD" style="rounded=0;whiteSpace=wrap;html=1;align=center;" parent="WIyWlLk6GJQsqaUBKTNV-1" vertex="1">
          <mxGeometry x="115" y="1494" width="120" height="60" as="geometry" />
        </mxCell>
        <mxCell id="JUYjfy3WTnw4ZEzhVMGz-81" value="" style="edgeStyle=orthogonalEdgeStyle;rounded=0;orthogonalLoop=1;jettySize=auto;html=1;" parent="WIyWlLk6GJQsqaUBKTNV-1" source="JUYjfy3WTnw4ZEzhVMGz-82" target="JUYjfy3WTnw4ZEzhVMGz-89" edge="1">
          <mxGeometry relative="1" as="geometry" />
        </mxCell>
        <mxCell id="JUYjfy3WTnw4ZEzhVMGz-82" value="Khai báo các thư viện" style="rounded=0;whiteSpace=wrap;html=1;" parent="WIyWlLk6GJQsqaUBKTNV-1" vertex="1">
          <mxGeometry x="115" y="1314" width="120" height="60" as="geometry" />
        </mxCell>
        <mxCell id="JUYjfy3WTnw4ZEzhVMGz-83" value="" style="edgeStyle=orthogonalEdgeStyle;rounded=0;orthogonalLoop=1;jettySize=auto;html=1;" parent="WIyWlLk6GJQsqaUBKTNV-1" target="JUYjfy3WTnw4ZEzhVMGz-82" edge="1">
          <mxGeometry relative="1" as="geometry">
            <mxPoint x="175" y="1284" as="sourcePoint" />
          </mxGeometry>
        </mxCell>
        <mxCell id="JUYjfy3WTnw4ZEzhVMGz-84" value="" style="edgeStyle=orthogonalEdgeStyle;rounded=0;orthogonalLoop=1;jettySize=auto;html=1;" parent="WIyWlLk6GJQsqaUBKTNV-1" source="JUYjfy3WTnw4ZEzhVMGz-85" edge="1">
          <mxGeometry relative="1" as="geometry">
            <mxPoint x="1235" y="1400" as="targetPoint" />
          </mxGeometry>
        </mxCell>
        <mxCell id="JUYjfy3WTnw4ZEzhVMGz-85" value="Lưu id channel và API key read" style="rounded=0;whiteSpace=wrap;html=1;" parent="WIyWlLk6GJQsqaUBKTNV-1" vertex="1">
          <mxGeometry x="1175" y="1310" width="120" height="60" as="geometry" />
        </mxCell>
        <mxCell id="JUYjfy3WTnw4ZEzhVMGz-86" value="" style="edgeStyle=orthogonalEdgeStyle;rounded=0;orthogonalLoop=1;jettySize=auto;html=1;" parent="WIyWlLk6GJQsqaUBKTNV-1" target="JUYjfy3WTnw4ZEzhVMGz-85" edge="1">
          <mxGeometry relative="1" as="geometry">
            <mxPoint x="1235" y="1280" as="sourcePoint" />
          </mxGeometry>
        </mxCell>
        <mxCell id="JUYjfy3WTnw4ZEzhVMGz-87" value="thingspeak_get" style="text;html=1;align=center;verticalAlign=middle;resizable=0;points=[];autosize=1;strokeColor=none;fillColor=none;" parent="WIyWlLk6GJQsqaUBKTNV-1" vertex="1">
          <mxGeometry x="1075" y="1210" width="100" height="30" as="geometry" />
        </mxCell>
        <mxCell id="JUYjfy3WTnw4ZEzhVMGz-88" value="" style="edgeStyle=orthogonalEdgeStyle;rounded=0;orthogonalLoop=1;jettySize=auto;html=1;" parent="WIyWlLk6GJQsqaUBKTNV-1" source="JUYjfy3WTnw4ZEzhVMGz-89" target="JUYjfy3WTnw4ZEzhVMGz-80" edge="1">
          <mxGeometry relative="1" as="geometry" />
        </mxCell>
        <mxCell id="JUYjfy3WTnw4ZEzhVMGz-89" value="Khai báo id channel&amp;nbsp; HTTP và API key read" style="rounded=0;whiteSpace=wrap;html=1;" parent="WIyWlLk6GJQsqaUBKTNV-1" vertex="1">
          <mxGeometry x="115" y="1404" width="120" height="60" as="geometry" />
        </mxCell>
        <mxCell id="JUYjfy3WTnw4ZEzhVMGz-90" value="" style="edgeStyle=orthogonalEdgeStyle;rounded=0;orthogonalLoop=1;jettySize=auto;html=1;" parent="WIyWlLk6GJQsqaUBKTNV-1" edge="1">
          <mxGeometry relative="1" as="geometry">
            <mxPoint x="175" y="1584" as="targetPoint" />
            <mxPoint x="175" y="1554" as="sourcePoint" />
          </mxGeometry>
        </mxCell>
        <mxCell id="JUYjfy3WTnw4ZEzhVMGz-121" value="End" style="ellipse;whiteSpace=wrap;html=1;" parent="WIyWlLk6GJQsqaUBKTNV-1" vertex="1">
          <mxGeometry x="1175" y="2164" width="120" height="80" as="geometry" />
        </mxCell>
        <mxCell id="JUYjfy3WTnw4ZEzhVMGz-122" value="Begin" style="ellipse;whiteSpace=wrap;html=1;" parent="WIyWlLk6GJQsqaUBKTNV-1" vertex="1">
          <mxGeometry x="1175" y="1200" width="120" height="80" as="geometry" />
        </mxCell>
        <mxCell id="JUYjfy3WTnw4ZEzhVMGz-123" value="Begin" style="ellipse;whiteSpace=wrap;html=1;" parent="WIyWlLk6GJQsqaUBKTNV-1" vertex="1">
          <mxGeometry x="115" y="1204" width="120" height="80" as="geometry" />
        </mxCell>
        <mxCell id="JUYjfy3WTnw4ZEzhVMGz-126" value="" style="edgeStyle=orthogonalEdgeStyle;rounded=0;orthogonalLoop=1;jettySize=auto;html=1;" parent="WIyWlLk6GJQsqaUBKTNV-1" source="JUYjfy3WTnw4ZEzhVMGz-124" target="JUYjfy3WTnw4ZEzhVMGz-125" edge="1">
          <mxGeometry relative="1" as="geometry" />
        </mxCell>
        <mxCell id="JUYjfy3WTnw4ZEzhVMGz-124" value="In ra màn hình&lt;div&gt;&amp;nbsp;loại lỗi&lt;/div&gt;" style="shape=parallelogram;perimeter=parallelogramPerimeter;whiteSpace=wrap;html=1;fixedSize=1;" parent="WIyWlLk6GJQsqaUBKTNV-1" vertex="1">
          <mxGeometry x="310" y="915" width="120" height="60" as="geometry" />
        </mxCell>
        <mxCell id="JUYjfy3WTnw4ZEzhVMGz-125" value="Delay 1s" style="whiteSpace=wrap;html=1;" parent="WIyWlLk6GJQsqaUBKTNV-1" vertex="1">
          <mxGeometry x="477.5" y="915" width="120" height="60" as="geometry" />
        </mxCell>
        <mxCell id="kKb7byAXvP9piWJfjQB5-3" value="" style="edgeStyle=orthogonalEdgeStyle;rounded=0;orthogonalLoop=1;jettySize=auto;html=1;" edge="1" parent="WIyWlLk6GJQsqaUBKTNV-1" source="JUYjfy3WTnw4ZEzhVMGz-127" target="kKb7byAXvP9piWJfjQB5-2">
          <mxGeometry relative="1" as="geometry" />
        </mxCell>
        <mxCell id="kKb7byAXvP9piWJfjQB5-8" value="" style="edgeStyle=orthogonalEdgeStyle;rounded=0;orthogonalLoop=1;jettySize=auto;html=1;" edge="1" parent="WIyWlLk6GJQsqaUBKTNV-1" source="JUYjfy3WTnw4ZEzhVMGz-127" target="kKb7byAXvP9piWJfjQB5-7">
          <mxGeometry relative="1" as="geometry" />
        </mxCell>
        <mxCell id="JUYjfy3WTnw4ZEzhVMGz-127" value="exception xảy ra" style="rhombus;whiteSpace=wrap;html=1;" parent="WIyWlLk6GJQsqaUBKTNV-1" vertex="1">
          <mxGeometry x="124.5" y="1674" width="101" height="101" as="geometry" />
        </mxCell>
        <mxCell id="JUYjfy3WTnw4ZEzhVMGz-129" value="" style="edgeStyle=orthogonalEdgeStyle;rounded=0;orthogonalLoop=1;jettySize=auto;html=1;" parent="WIyWlLk6GJQsqaUBKTNV-1" source="JUYjfy3WTnw4ZEzhVMGz-128" target="JUYjfy3WTnw4ZEzhVMGz-127" edge="1">
          <mxGeometry relative="1" as="geometry" />
        </mxCell>
        <mxCell id="JUYjfy3WTnw4ZEzhVMGz-128" value="try thingspeakget" style="shape=process;whiteSpace=wrap;html=1;backgroundOutline=1;" parent="WIyWlLk6GJQsqaUBKTNV-1" vertex="1">
          <mxGeometry x="115" y="1584" width="120" height="60" as="geometry" />
        </mxCell>
        <mxCell id="kKb7byAXvP9piWJfjQB5-0" value="Đúng" style="text;html=1;align=center;verticalAlign=middle;resizable=0;points=[];autosize=1;strokeColor=none;fillColor=none;" vertex="1" parent="WIyWlLk6GJQsqaUBKTNV-1">
          <mxGeometry x="225.5" y="1692" width="50" height="30" as="geometry" />
        </mxCell>
        <mxCell id="kKb7byAXvP9piWJfjQB5-5" value="" style="edgeStyle=orthogonalEdgeStyle;rounded=0;orthogonalLoop=1;jettySize=auto;html=1;" edge="1" parent="WIyWlLk6GJQsqaUBKTNV-1" source="kKb7byAXvP9piWJfjQB5-2" target="kKb7byAXvP9piWJfjQB5-4">
          <mxGeometry relative="1" as="geometry" />
        </mxCell>
        <mxCell id="kKb7byAXvP9piWJfjQB5-2" value="In ra màn hình&lt;div&gt;&amp;nbsp;loại lỗi&lt;/div&gt;" style="shape=parallelogram;perimeter=parallelogramPerimeter;whiteSpace=wrap;html=1;fixedSize=1;" vertex="1" parent="WIyWlLk6GJQsqaUBKTNV-1">
          <mxGeometry x="262.5" y="1694.5" width="120" height="60" as="geometry" />
        </mxCell>
        <mxCell id="kKb7byAXvP9piWJfjQB5-4" value="Delay 1s" style="whiteSpace=wrap;html=1;" vertex="1" parent="WIyWlLk6GJQsqaUBKTNV-1">
          <mxGeometry x="412.5" y="1694.5" width="120" height="60" as="geometry" />
        </mxCell>
        <mxCell id="kKb7byAXvP9piWJfjQB5-10" value="" style="edgeStyle=orthogonalEdgeStyle;rounded=0;orthogonalLoop=1;jettySize=auto;html=1;" edge="1" parent="WIyWlLk6GJQsqaUBKTNV-1" source="kKb7byAXvP9piWJfjQB5-7" target="kKb7byAXvP9piWJfjQB5-9">
          <mxGeometry relative="1" as="geometry" />
        </mxCell>
        <mxCell id="kKb7byAXvP9piWJfjQB5-13" value="" style="edgeStyle=orthogonalEdgeStyle;rounded=0;orthogonalLoop=1;jettySize=auto;html=1;" edge="1" parent="WIyWlLk6GJQsqaUBKTNV-1" source="kKb7byAXvP9piWJfjQB5-7" target="kKb7byAXvP9piWJfjQB5-11">
          <mxGeometry relative="1" as="geometry" />
        </mxCell>
        <mxCell id="kKb7byAXvP9piWJfjQB5-7" value="&lt;div&gt;&lt;br&gt;&lt;/div&gt;Dữ liệu trường 1&amp;gt;50" style="rhombus;whiteSpace=wrap;html=1;" vertex="1" parent="WIyWlLk6GJQsqaUBKTNV-1">
          <mxGeometry x="125.5" y="1805" width="100" height="100" as="geometry" />
        </mxCell>
        <mxCell id="kKb7byAXvP9piWJfjQB5-14" style="edgeStyle=orthogonalEdgeStyle;rounded=0;orthogonalLoop=1;jettySize=auto;html=1;exitX=1;exitY=0.5;exitDx=0;exitDy=0;entryX=0;entryY=0.5;entryDx=0;entryDy=0;" edge="1" parent="WIyWlLk6GJQsqaUBKTNV-1" source="kKb7byAXvP9piWJfjQB5-9" target="kKb7byAXvP9piWJfjQB5-12">
          <mxGeometry relative="1" as="geometry" />
        </mxCell>
        <mxCell id="kKb7byAXvP9piWJfjQB5-58" value="" style="edgeStyle=orthogonalEdgeStyle;rounded=0;orthogonalLoop=1;jettySize=auto;html=1;" edge="1" parent="WIyWlLk6GJQsqaUBKTNV-1" source="kKb7byAXvP9piWJfjQB5-9" target="kKb7byAXvP9piWJfjQB5-22">
          <mxGeometry relative="1" as="geometry" />
        </mxCell>
        <mxCell id="kKb7byAXvP9piWJfjQB5-9" value="&lt;div&gt;&lt;br&gt;&lt;/div&gt;Dữ liệu trường 1&amp;lt;50" style="rhombus;whiteSpace=wrap;html=1;" vertex="1" parent="WIyWlLk6GJQsqaUBKTNV-1">
          <mxGeometry x="125.5" y="1935" width="100" height="100" as="geometry" />
        </mxCell>
        <mxCell id="kKb7byAXvP9piWJfjQB5-67" style="edgeStyle=orthogonalEdgeStyle;rounded=0;orthogonalLoop=1;jettySize=auto;html=1;exitX=1;exitY=0.5;exitDx=0;exitDy=0;entryX=1;entryY=0.333;entryDx=0;entryDy=0;entryPerimeter=0;" edge="1" parent="WIyWlLk6GJQsqaUBKTNV-1" source="kKb7byAXvP9piWJfjQB5-11" target="kKb7byAXvP9piWJfjQB5-65">
          <mxGeometry relative="1" as="geometry">
            <mxPoint x="182.5" y="2045" as="targetPoint" />
            <Array as="points">
              <mxPoint x="403.5" y="1855" />
              <mxPoint x="403.5" y="2045" />
            </Array>
          </mxGeometry>
        </mxCell>
        <mxCell id="kKb7byAXvP9piWJfjQB5-11" value="Bật led" style="shape=parallelogram;perimeter=parallelogramPerimeter;whiteSpace=wrap;html=1;fixedSize=1;" vertex="1" parent="WIyWlLk6GJQsqaUBKTNV-1">
          <mxGeometry x="262.5" y="1825" width="120" height="60" as="geometry" />
        </mxCell>
        <mxCell id="kKb7byAXvP9piWJfjQB5-68" style="edgeStyle=orthogonalEdgeStyle;rounded=0;orthogonalLoop=1;jettySize=auto;html=1;" edge="1" parent="WIyWlLk6GJQsqaUBKTNV-1" source="kKb7byAXvP9piWJfjQB5-12">
          <mxGeometry relative="1" as="geometry">
            <mxPoint x="402.4999999999999" y="1985" as="targetPoint" />
          </mxGeometry>
        </mxCell>
        <mxCell id="kKb7byAXvP9piWJfjQB5-12" value="Tắt led" style="shape=parallelogram;perimeter=parallelogramPerimeter;whiteSpace=wrap;html=1;fixedSize=1;" vertex="1" parent="WIyWlLk6GJQsqaUBKTNV-1">
          <mxGeometry x="262.5" y="1955" width="120" height="60" as="geometry" />
        </mxCell>
        <mxCell id="kKb7byAXvP9piWJfjQB5-15" value="Đúng" style="text;html=1;align=center;verticalAlign=middle;resizable=0;points=[];autosize=1;strokeColor=none;fillColor=none;" vertex="1" parent="WIyWlLk6GJQsqaUBKTNV-1">
          <mxGeometry x="225.5" y="1825" width="50" height="30" as="geometry" />
        </mxCell>
        <mxCell id="kKb7byAXvP9piWJfjQB5-16" value="Sai" style="text;html=1;align=center;verticalAlign=middle;resizable=0;points=[];autosize=1;strokeColor=none;fillColor=none;" vertex="1" parent="WIyWlLk6GJQsqaUBKTNV-1">
          <mxGeometry x="127.5" y="1905" width="40" height="30" as="geometry" />
        </mxCell>
        <mxCell id="kKb7byAXvP9piWJfjQB5-17" value="Đúng" style="text;html=1;align=center;verticalAlign=middle;resizable=0;points=[];autosize=1;strokeColor=none;fillColor=none;" vertex="1" parent="WIyWlLk6GJQsqaUBKTNV-1">
          <mxGeometry x="225.5" y="1954" width="50" height="30" as="geometry" />
        </mxCell>
        <mxCell id="kKb7byAXvP9piWJfjQB5-19" value="Sai" style="text;html=1;align=center;verticalAlign=middle;resizable=0;points=[];autosize=1;strokeColor=none;fillColor=none;" vertex="1" parent="WIyWlLk6GJQsqaUBKTNV-1">
          <mxGeometry x="132.5" y="1775" width="40" height="30" as="geometry" />
        </mxCell>
        <mxCell id="kKb7byAXvP9piWJfjQB5-20" value="" style="edgeStyle=orthogonalEdgeStyle;rounded=0;orthogonalLoop=1;jettySize=auto;html=1;" edge="1" parent="WIyWlLk6GJQsqaUBKTNV-1" source="kKb7byAXvP9piWJfjQB5-22" target="kKb7byAXvP9piWJfjQB5-24">
          <mxGeometry relative="1" as="geometry" />
        </mxCell>
        <mxCell id="kKb7byAXvP9piWJfjQB5-21" value="" style="edgeStyle=orthogonalEdgeStyle;rounded=0;orthogonalLoop=1;jettySize=auto;html=1;" edge="1" parent="WIyWlLk6GJQsqaUBKTNV-1" source="kKb7byAXvP9piWJfjQB5-22" target="kKb7byAXvP9piWJfjQB5-25">
          <mxGeometry relative="1" as="geometry" />
        </mxCell>
        <mxCell id="kKb7byAXvP9piWJfjQB5-22" value="&lt;div&gt;&lt;br&gt;&lt;/div&gt;Dữ liệu trường 2&amp;gt;37" style="rhombus;whiteSpace=wrap;html=1;" vertex="1" parent="WIyWlLk6GJQsqaUBKTNV-1">
          <mxGeometry x="125.5" y="2065" width="100" height="100" as="geometry" />
        </mxCell>
        <mxCell id="kKb7byAXvP9piWJfjQB5-23" style="edgeStyle=orthogonalEdgeStyle;rounded=0;orthogonalLoop=1;jettySize=auto;html=1;exitX=1;exitY=0.5;exitDx=0;exitDy=0;entryX=0;entryY=0.5;entryDx=0;entryDy=0;" edge="1" parent="WIyWlLk6GJQsqaUBKTNV-1" source="kKb7byAXvP9piWJfjQB5-24" target="kKb7byAXvP9piWJfjQB5-26">
          <mxGeometry relative="1" as="geometry" />
        </mxCell>
        <mxCell id="kKb7byAXvP9piWJfjQB5-60" value="" style="edgeStyle=orthogonalEdgeStyle;rounded=0;orthogonalLoop=1;jettySize=auto;html=1;" edge="1" parent="WIyWlLk6GJQsqaUBKTNV-1" source="kKb7byAXvP9piWJfjQB5-24" target="kKb7byAXvP9piWJfjQB5-59">
          <mxGeometry relative="1" as="geometry" />
        </mxCell>
        <mxCell id="kKb7byAXvP9piWJfjQB5-24" value="&lt;div&gt;&lt;br&gt;&lt;/div&gt;Dữ liệu trường 2&amp;lt;50" style="rhombus;whiteSpace=wrap;html=1;" vertex="1" parent="WIyWlLk6GJQsqaUBKTNV-1">
          <mxGeometry x="125.5" y="2195" width="100" height="100" as="geometry" />
        </mxCell>
        <mxCell id="kKb7byAXvP9piWJfjQB5-69" style="edgeStyle=orthogonalEdgeStyle;rounded=0;orthogonalLoop=1;jettySize=auto;html=1;exitX=1;exitY=0.5;exitDx=0;exitDy=0;" edge="1" parent="WIyWlLk6GJQsqaUBKTNV-1" source="kKb7byAXvP9piWJfjQB5-25" target="kKb7byAXvP9piWJfjQB5-66">
          <mxGeometry relative="1" as="geometry">
            <mxPoint x="302.5" y="2305" as="targetPoint" />
            <Array as="points">
              <mxPoint x="402.5" y="2115" />
              <mxPoint x="402.5" y="2305" />
            </Array>
          </mxGeometry>
        </mxCell>
        <mxCell id="kKb7byAXvP9piWJfjQB5-25" value="Bật buzzer" style="shape=parallelogram;perimeter=parallelogramPerimeter;whiteSpace=wrap;html=1;fixedSize=1;" vertex="1" parent="WIyWlLk6GJQsqaUBKTNV-1">
          <mxGeometry x="262.5" y="2085" width="120" height="60" as="geometry" />
        </mxCell>
        <mxCell id="kKb7byAXvP9piWJfjQB5-70" style="edgeStyle=orthogonalEdgeStyle;rounded=0;orthogonalLoop=1;jettySize=auto;html=1;exitX=1;exitY=0.5;exitDx=0;exitDy=0;" edge="1" parent="WIyWlLk6GJQsqaUBKTNV-1" source="kKb7byAXvP9piWJfjQB5-26">
          <mxGeometry relative="1" as="geometry">
            <mxPoint x="402.4999999999999" y="2245.0588235294117" as="targetPoint" />
          </mxGeometry>
        </mxCell>
        <mxCell id="kKb7byAXvP9piWJfjQB5-26" value="Tắt buzzer" style="shape=parallelogram;perimeter=parallelogramPerimeter;whiteSpace=wrap;html=1;fixedSize=1;" vertex="1" parent="WIyWlLk6GJQsqaUBKTNV-1">
          <mxGeometry x="262.5" y="2215" width="120" height="60" as="geometry" />
        </mxCell>
        <mxCell id="kKb7byAXvP9piWJfjQB5-27" value="Đúng" style="text;html=1;align=center;verticalAlign=middle;resizable=0;points=[];autosize=1;strokeColor=none;fillColor=none;" vertex="1" parent="WIyWlLk6GJQsqaUBKTNV-1">
          <mxGeometry x="225.5" y="2085" width="50" height="30" as="geometry" />
        </mxCell>
        <mxCell id="kKb7byAXvP9piWJfjQB5-28" value="Sai" style="text;html=1;align=center;verticalAlign=middle;resizable=0;points=[];autosize=1;strokeColor=none;fillColor=none;" vertex="1" parent="WIyWlLk6GJQsqaUBKTNV-1">
          <mxGeometry x="132.5" y="2165" width="40" height="30" as="geometry" />
        </mxCell>
        <mxCell id="kKb7byAXvP9piWJfjQB5-29" value="Đúng" style="text;html=1;align=center;verticalAlign=middle;resizable=0;points=[];autosize=1;strokeColor=none;fillColor=none;" vertex="1" parent="WIyWlLk6GJQsqaUBKTNV-1">
          <mxGeometry x="225.5" y="2214" width="50" height="30" as="geometry" />
        </mxCell>
        <mxCell id="kKb7byAXvP9piWJfjQB5-64" value="" style="edgeStyle=orthogonalEdgeStyle;rounded=0;orthogonalLoop=1;jettySize=auto;html=1;" edge="1" parent="WIyWlLk6GJQsqaUBKTNV-1" source="kKb7byAXvP9piWJfjQB5-30" target="kKb7byAXvP9piWJfjQB5-34">
          <mxGeometry relative="1" as="geometry" />
        </mxCell>
        <mxCell id="kKb7byAXvP9piWJfjQB5-30" value="A" style="ellipse;whiteSpace=wrap;html=1;" vertex="1" parent="WIyWlLk6GJQsqaUBKTNV-1">
          <mxGeometry x="749.5" y="1190" width="120" height="80" as="geometry" />
        </mxCell>
        <mxCell id="kKb7byAXvP9piWJfjQB5-32" value="" style="edgeStyle=orthogonalEdgeStyle;rounded=0;orthogonalLoop=1;jettySize=auto;html=1;" edge="1" parent="WIyWlLk6GJQsqaUBKTNV-1" source="kKb7byAXvP9piWJfjQB5-34" target="kKb7byAXvP9piWJfjQB5-36">
          <mxGeometry relative="1" as="geometry" />
        </mxCell>
        <mxCell id="kKb7byAXvP9piWJfjQB5-33" value="" style="edgeStyle=orthogonalEdgeStyle;rounded=0;orthogonalLoop=1;jettySize=auto;html=1;" edge="1" parent="WIyWlLk6GJQsqaUBKTNV-1" source="kKb7byAXvP9piWJfjQB5-34" target="kKb7byAXvP9piWJfjQB5-37">
          <mxGeometry relative="1" as="geometry" />
        </mxCell>
        <mxCell id="kKb7byAXvP9piWJfjQB5-34" value="&lt;div&gt;&lt;br&gt;&lt;/div&gt;Dữ liệu trường 3&amp;gt;90" style="rhombus;whiteSpace=wrap;html=1;" vertex="1" parent="WIyWlLk6GJQsqaUBKTNV-1">
          <mxGeometry x="759.5" y="1305" width="100" height="100" as="geometry" />
        </mxCell>
        <mxCell id="kKb7byAXvP9piWJfjQB5-35" style="edgeStyle=orthogonalEdgeStyle;rounded=0;orthogonalLoop=1;jettySize=auto;html=1;exitX=1;exitY=0.5;exitDx=0;exitDy=0;entryX=0;entryY=0.5;entryDx=0;entryDy=0;" edge="1" parent="WIyWlLk6GJQsqaUBKTNV-1" source="kKb7byAXvP9piWJfjQB5-36" target="kKb7byAXvP9piWJfjQB5-38">
          <mxGeometry relative="1" as="geometry" />
        </mxCell>
        <mxCell id="kKb7byAXvP9piWJfjQB5-45" style="edgeStyle=orthogonalEdgeStyle;rounded=0;orthogonalLoop=1;jettySize=auto;html=1;exitX=0.5;exitY=1;exitDx=0;exitDy=0;entryX=0.5;entryY=0;entryDx=0;entryDy=0;" edge="1" parent="WIyWlLk6GJQsqaUBKTNV-1" source="kKb7byAXvP9piWJfjQB5-36" target="kKb7byAXvP9piWJfjQB5-44">
          <mxGeometry relative="1" as="geometry" />
        </mxCell>
        <mxCell id="kKb7byAXvP9piWJfjQB5-36" value="&lt;div&gt;&lt;br&gt;&lt;/div&gt;Dữ liệu trường 3&amp;gt;60" style="rhombus;whiteSpace=wrap;html=1;" vertex="1" parent="WIyWlLk6GJQsqaUBKTNV-1">
          <mxGeometry x="759.5" y="1435" width="100" height="100" as="geometry" />
        </mxCell>
        <mxCell id="kKb7byAXvP9piWJfjQB5-62" style="edgeStyle=orthogonalEdgeStyle;rounded=0;orthogonalLoop=1;jettySize=auto;html=1;exitX=1;exitY=0.5;exitDx=0;exitDy=0;" edge="1" parent="WIyWlLk6GJQsqaUBKTNV-1" source="kKb7byAXvP9piWJfjQB5-37">
          <mxGeometry relative="1" as="geometry">
            <mxPoint x="809.5" y="1545" as="targetPoint" />
            <Array as="points">
              <mxPoint x="1042.5" y="1355" />
              <mxPoint x="1042.5" y="1545" />
            </Array>
          </mxGeometry>
        </mxCell>
        <mxCell id="kKb7byAXvP9piWJfjQB5-37" value="Bật led" style="shape=parallelogram;perimeter=parallelogramPerimeter;whiteSpace=wrap;html=1;fixedSize=1;" vertex="1" parent="WIyWlLk6GJQsqaUBKTNV-1">
          <mxGeometry x="896.5" y="1325" width="120" height="60" as="geometry" />
        </mxCell>
        <mxCell id="kKb7byAXvP9piWJfjQB5-63" style="edgeStyle=orthogonalEdgeStyle;rounded=0;orthogonalLoop=1;jettySize=auto;html=1;exitX=1;exitY=0.5;exitDx=0;exitDy=0;" edge="1" parent="WIyWlLk6GJQsqaUBKTNV-1" source="kKb7byAXvP9piWJfjQB5-38">
          <mxGeometry relative="1" as="geometry">
            <mxPoint x="1042.5" y="1485" as="targetPoint" />
            <Array as="points">
              <mxPoint x="1018.5" y="1485" />
            </Array>
          </mxGeometry>
        </mxCell>
        <mxCell id="kKb7byAXvP9piWJfjQB5-38" value="Tắt led" style="shape=parallelogram;perimeter=parallelogramPerimeter;whiteSpace=wrap;html=1;fixedSize=1;" vertex="1" parent="WIyWlLk6GJQsqaUBKTNV-1">
          <mxGeometry x="896.5" y="1455" width="120" height="60" as="geometry" />
        </mxCell>
        <mxCell id="kKb7byAXvP9piWJfjQB5-39" value="Đúng" style="text;html=1;align=center;verticalAlign=middle;resizable=0;points=[];autosize=1;strokeColor=none;fillColor=none;" vertex="1" parent="WIyWlLk6GJQsqaUBKTNV-1">
          <mxGeometry x="859.5" y="1325" width="50" height="30" as="geometry" />
        </mxCell>
        <mxCell id="kKb7byAXvP9piWJfjQB5-40" value="Sai" style="text;html=1;align=center;verticalAlign=middle;resizable=0;points=[];autosize=1;strokeColor=none;fillColor=none;" vertex="1" parent="WIyWlLk6GJQsqaUBKTNV-1">
          <mxGeometry x="759.5" y="1405" width="40" height="30" as="geometry" />
        </mxCell>
        <mxCell id="kKb7byAXvP9piWJfjQB5-41" value="Đúng" style="text;html=1;align=center;verticalAlign=middle;resizable=0;points=[];autosize=1;strokeColor=none;fillColor=none;" vertex="1" parent="WIyWlLk6GJQsqaUBKTNV-1">
          <mxGeometry x="859.5" y="1454" width="50" height="30" as="geometry" />
        </mxCell>
        <mxCell id="kKb7byAXvP9piWJfjQB5-47" value="" style="edgeStyle=orthogonalEdgeStyle;rounded=0;orthogonalLoop=1;jettySize=auto;html=1;" edge="1" parent="WIyWlLk6GJQsqaUBKTNV-1" source="kKb7byAXvP9piWJfjQB5-44" target="kKb7byAXvP9piWJfjQB5-46">
          <mxGeometry relative="1" as="geometry" />
        </mxCell>
        <mxCell id="kKb7byAXvP9piWJfjQB5-44" value="Xoá màn hình LCD" style="rounded=0;whiteSpace=wrap;html=1;" vertex="1" parent="WIyWlLk6GJQsqaUBKTNV-1">
          <mxGeometry x="749.5" y="1575" width="120" height="60" as="geometry" />
        </mxCell>
        <mxCell id="kKb7byAXvP9piWJfjQB5-49" value="" style="edgeStyle=orthogonalEdgeStyle;rounded=0;orthogonalLoop=1;jettySize=auto;html=1;" edge="1" parent="WIyWlLk6GJQsqaUBKTNV-1" source="kKb7byAXvP9piWJfjQB5-46" target="kKb7byAXvP9piWJfjQB5-48">
          <mxGeometry relative="1" as="geometry" />
        </mxCell>
        <mxCell id="kKb7byAXvP9piWJfjQB5-46" value="Delay 0.5s" style="rounded=0;whiteSpace=wrap;html=1;" vertex="1" parent="WIyWlLk6GJQsqaUBKTNV-1">
          <mxGeometry x="749.5" y="1669" width="120" height="60" as="geometry" />
        </mxCell>
        <mxCell id="kKb7byAXvP9piWJfjQB5-51" value="" style="edgeStyle=orthogonalEdgeStyle;rounded=0;orthogonalLoop=1;jettySize=auto;html=1;" edge="1" parent="WIyWlLk6GJQsqaUBKTNV-1" source="kKb7byAXvP9piWJfjQB5-48" target="kKb7byAXvP9piWJfjQB5-50">
          <mxGeometry relative="1" as="geometry" />
        </mxCell>
        <mxCell id="kKb7byAXvP9piWJfjQB5-48" value="Đăjt vị trí con trỏ ỏ&lt;div&gt;đầu dòng đầu tiên&amp;nbsp;&lt;/div&gt;" style="rounded=0;whiteSpace=wrap;html=1;" vertex="1" parent="WIyWlLk6GJQsqaUBKTNV-1">
          <mxGeometry x="749.5" y="1765" width="120" height="60" as="geometry" />
        </mxCell>
        <mxCell id="kKb7byAXvP9piWJfjQB5-55" value="" style="edgeStyle=orthogonalEdgeStyle;rounded=0;orthogonalLoop=1;jettySize=auto;html=1;" edge="1" parent="WIyWlLk6GJQsqaUBKTNV-1" source="kKb7byAXvP9piWJfjQB5-50" target="kKb7byAXvP9piWJfjQB5-53">
          <mxGeometry relative="1" as="geometry" />
        </mxCell>
        <mxCell id="kKb7byAXvP9piWJfjQB5-50" value="In ra màn hình&lt;div&gt;giá trị ngẫu nhiên&lt;/div&gt;" style="shape=parallelogram;perimeter=parallelogramPerimeter;whiteSpace=wrap;html=1;fixedSize=1;" vertex="1" parent="WIyWlLk6GJQsqaUBKTNV-1">
          <mxGeometry x="749.5" y="1855" width="120" height="60" as="geometry" />
        </mxCell>
        <mxCell id="kKb7byAXvP9piWJfjQB5-52" value="" style="edgeStyle=orthogonalEdgeStyle;rounded=0;orthogonalLoop=1;jettySize=auto;html=1;" edge="1" parent="WIyWlLk6GJQsqaUBKTNV-1" source="kKb7byAXvP9piWJfjQB5-53" target="kKb7byAXvP9piWJfjQB5-54">
          <mxGeometry relative="1" as="geometry" />
        </mxCell>
        <mxCell id="kKb7byAXvP9piWJfjQB5-53" value="Đăjt vị trí con trỏ ỏ&lt;div&gt;đầu dòng thứ 2&lt;/div&gt;" style="rounded=0;whiteSpace=wrap;html=1;" vertex="1" parent="WIyWlLk6GJQsqaUBKTNV-1">
          <mxGeometry x="749.5" y="1945" width="120" height="60" as="geometry" />
        </mxCell>
        <mxCell id="kKb7byAXvP9piWJfjQB5-57" value="" style="edgeStyle=orthogonalEdgeStyle;rounded=0;orthogonalLoop=1;jettySize=auto;html=1;" edge="1" parent="WIyWlLk6GJQsqaUBKTNV-1" source="kKb7byAXvP9piWJfjQB5-54" target="kKb7byAXvP9piWJfjQB5-56">
          <mxGeometry relative="1" as="geometry" />
        </mxCell>
        <mxCell id="kKb7byAXvP9piWJfjQB5-54" value="In ra màn hình&lt;div&gt;nhiệt độ, độ ẩm&lt;/div&gt;" style="shape=parallelogram;perimeter=parallelogramPerimeter;whiteSpace=wrap;html=1;fixedSize=1;" vertex="1" parent="WIyWlLk6GJQsqaUBKTNV-1">
          <mxGeometry x="749.5" y="2035" width="120" height="60" as="geometry" />
        </mxCell>
        <mxCell id="kKb7byAXvP9piWJfjQB5-72" style="edgeStyle=orthogonalEdgeStyle;rounded=0;orthogonalLoop=1;jettySize=auto;html=1;exitX=0.5;exitY=1;exitDx=0;exitDy=0;" edge="1" parent="WIyWlLk6GJQsqaUBKTNV-1">
          <mxGeometry relative="1" as="geometry">
            <mxPoint x="172.5" y="1565" as="targetPoint" />
            <mxPoint x="806.83" y="2175" as="sourcePoint" />
            <Array as="points">
              <mxPoint x="806.83" y="2195" />
              <mxPoint x="599.83" y="2195" />
              <mxPoint x="599.83" y="1565" />
            </Array>
          </mxGeometry>
        </mxCell>
        <mxCell id="kKb7byAXvP9piWJfjQB5-56" value="Delay 20s" style="rounded=0;whiteSpace=wrap;html=1;" vertex="1" parent="WIyWlLk6GJQsqaUBKTNV-1">
          <mxGeometry x="749.5" y="2125" width="120" height="60" as="geometry" />
        </mxCell>
        <mxCell id="kKb7byAXvP9piWJfjQB5-59" value="A" style="ellipse;whiteSpace=wrap;html=1;" vertex="1" parent="WIyWlLk6GJQsqaUBKTNV-1">
          <mxGeometry x="115" y="2325" width="120" height="80" as="geometry" />
        </mxCell>
        <mxCell id="kKb7byAXvP9piWJfjQB5-61" value="Sai" style="text;html=1;align=center;verticalAlign=middle;resizable=0;points=[];autosize=1;strokeColor=none;fillColor=none;" vertex="1" parent="WIyWlLk6GJQsqaUBKTNV-1">
          <mxGeometry x="759.5" y="1535" width="40" height="30" as="geometry" />
        </mxCell>
        <mxCell id="kKb7byAXvP9piWJfjQB5-65" value="Sai" style="text;html=1;align=center;verticalAlign=middle;resizable=0;points=[];autosize=1;strokeColor=none;fillColor=none;" vertex="1" parent="WIyWlLk6GJQsqaUBKTNV-1">
          <mxGeometry x="132.5" y="2035" width="40" height="30" as="geometry" />
        </mxCell>
        <mxCell id="kKb7byAXvP9piWJfjQB5-66" value="Sai" style="text;html=1;align=center;verticalAlign=middle;resizable=0;points=[];autosize=1;strokeColor=none;fillColor=none;" vertex="1" parent="WIyWlLk6GJQsqaUBKTNV-1">
          <mxGeometry x="132.5" y="2295" width="40" height="30" as="geometry" />
        </mxCell>
        <mxCell id="kKb7byAXvP9piWJfjQB5-78" value="" style="edgeStyle=orthogonalEdgeStyle;rounded=0;orthogonalLoop=1;jettySize=auto;html=1;" edge="1" parent="WIyWlLk6GJQsqaUBKTNV-1" target="kKb7byAXvP9piWJfjQB5-77">
          <mxGeometry relative="1" as="geometry">
            <mxPoint x="1235.0000000000002" y="1896.5" as="sourcePoint" />
          </mxGeometry>
        </mxCell>
        <mxCell id="kKb7byAXvP9piWJfjQB5-108" style="edgeStyle=orthogonalEdgeStyle;rounded=0;orthogonalLoop=1;jettySize=auto;html=1;exitX=1;exitY=0.5;exitDx=0;exitDy=0;entryX=0;entryY=0.5;entryDx=0;entryDy=0;" edge="1" parent="WIyWlLk6GJQsqaUBKTNV-1" source="kKb7byAXvP9piWJfjQB5-77" target="kKb7byAXvP9piWJfjQB5-106">
          <mxGeometry relative="1" as="geometry" />
        </mxCell>
        <mxCell id="kKb7byAXvP9piWJfjQB5-109" style="edgeStyle=orthogonalEdgeStyle;rounded=0;orthogonalLoop=1;jettySize=auto;html=1;exitX=0.5;exitY=1;exitDx=0;exitDy=0;entryX=0.5;entryY=0;entryDx=0;entryDy=0;" edge="1" parent="WIyWlLk6GJQsqaUBKTNV-1" source="kKb7byAXvP9piWJfjQB5-77" target="kKb7byAXvP9piWJfjQB5-104">
          <mxGeometry relative="1" as="geometry" />
        </mxCell>
        <mxCell id="kKb7byAXvP9piWJfjQB5-77" value="field &amp;gt;4?" style="rhombus;whiteSpace=wrap;html=1;" vertex="1" parent="WIyWlLk6GJQsqaUBKTNV-1">
          <mxGeometry x="1182" y="1935.5" width="106" height="106" as="geometry" />
        </mxCell>
        <mxCell id="kKb7byAXvP9piWJfjQB5-81" value="sai" style="text;html=1;align=center;verticalAlign=middle;resizable=0;points=[];autosize=1;strokeColor=none;fillColor=none;" vertex="1" parent="WIyWlLk6GJQsqaUBKTNV-1">
          <mxGeometry x="1288" y="1956.5" width="40" height="30" as="geometry" />
        </mxCell>
        <mxCell id="kKb7byAXvP9piWJfjQB5-105" style="edgeStyle=orthogonalEdgeStyle;rounded=0;orthogonalLoop=1;jettySize=auto;html=1;exitX=0.5;exitY=1;exitDx=0;exitDy=0;entryX=0.5;entryY=0;entryDx=0;entryDy=0;" edge="1" parent="WIyWlLk6GJQsqaUBKTNV-1" source="kKb7byAXvP9piWJfjQB5-82" target="kKb7byAXvP9piWJfjQB5-95">
          <mxGeometry relative="1" as="geometry" />
        </mxCell>
        <mxCell id="kKb7byAXvP9piWJfjQB5-82" value="Field = 1" style="rounded=0;whiteSpace=wrap;html=1;" vertex="1" parent="WIyWlLk6GJQsqaUBKTNV-1">
          <mxGeometry x="1175" y="1405" width="120" height="60" as="geometry" />
        </mxCell>
        <mxCell id="kKb7byAXvP9piWJfjQB5-94" value="" style="edgeStyle=orthogonalEdgeStyle;rounded=0;orthogonalLoop=1;jettySize=auto;html=1;" edge="1" parent="WIyWlLk6GJQsqaUBKTNV-1" source="kKb7byAXvP9piWJfjQB5-95" target="kKb7byAXvP9piWJfjQB5-97">
          <mxGeometry relative="1" as="geometry" />
        </mxCell>
        <mxCell id="kKb7byAXvP9piWJfjQB5-95" value="Tạo yêu cầu HTTP GET để đọc dữ liệu từng trường" style="whiteSpace=wrap;html=1;" vertex="1" parent="WIyWlLk6GJQsqaUBKTNV-1">
          <mxGeometry x="1175" y="1484" width="120" height="60" as="geometry" />
        </mxCell>
        <mxCell id="kKb7byAXvP9piWJfjQB5-96" value="" style="edgeStyle=orthogonalEdgeStyle;rounded=0;orthogonalLoop=1;jettySize=auto;html=1;" edge="1" parent="WIyWlLk6GJQsqaUBKTNV-1" source="kKb7byAXvP9piWJfjQB5-97" target="kKb7byAXvP9piWJfjQB5-99">
          <mxGeometry relative="1" as="geometry" />
        </mxCell>
        <mxCell id="kKb7byAXvP9piWJfjQB5-97" value="Gửi yêu cầu lên thingspeak để nhận phản hồi" style="whiteSpace=wrap;html=1;" vertex="1" parent="WIyWlLk6GJQsqaUBKTNV-1">
          <mxGeometry x="1175" y="1574" width="120" height="60" as="geometry" />
        </mxCell>
        <mxCell id="kKb7byAXvP9piWJfjQB5-98" value="" style="edgeStyle=orthogonalEdgeStyle;rounded=0;orthogonalLoop=1;jettySize=auto;html=1;" edge="1" parent="WIyWlLk6GJQsqaUBKTNV-1" source="kKb7byAXvP9piWJfjQB5-99" target="kKb7byAXvP9piWJfjQB5-101">
          <mxGeometry relative="1" as="geometry" />
        </mxCell>
        <mxCell id="kKb7byAXvP9piWJfjQB5-99" value="Đọc và giải mã dữ liệu từ phản hồi" style="whiteSpace=wrap;html=1;" vertex="1" parent="WIyWlLk6GJQsqaUBKTNV-1">
          <mxGeometry x="1175" y="1664" width="120" height="60" as="geometry" />
        </mxCell>
        <mxCell id="kKb7byAXvP9piWJfjQB5-100" value="" style="edgeStyle=orthogonalEdgeStyle;rounded=0;orthogonalLoop=1;jettySize=auto;html=1;" edge="1" parent="WIyWlLk6GJQsqaUBKTNV-1" source="kKb7byAXvP9piWJfjQB5-101">
          <mxGeometry relative="1" as="geometry">
            <mxPoint x="1235.0000000000002" y="1844" as="targetPoint" />
          </mxGeometry>
        </mxCell>
        <mxCell id="kKb7byAXvP9piWJfjQB5-101" value="Lưu lại dữ liệu trong file json" style="whiteSpace=wrap;html=1;" vertex="1" parent="WIyWlLk6GJQsqaUBKTNV-1">
          <mxGeometry x="1175" y="1754" width="120" height="60" as="geometry" />
        </mxCell>
        <mxCell id="kKb7byAXvP9piWJfjQB5-103" value="Ép kiểu dữ liệu thành int và lưu lại vào dictionary data với key tương ứng" style="rounded=0;whiteSpace=wrap;html=1;" vertex="1" parent="WIyWlLk6GJQsqaUBKTNV-1">
          <mxGeometry x="1175" y="1844" width="120" height="60" as="geometry" />
        </mxCell>
        <mxCell id="kKb7byAXvP9piWJfjQB5-110" style="edgeStyle=orthogonalEdgeStyle;rounded=0;orthogonalLoop=1;jettySize=auto;html=1;exitX=0.5;exitY=1;exitDx=0;exitDy=0;" edge="1" parent="WIyWlLk6GJQsqaUBKTNV-1" source="kKb7byAXvP9piWJfjQB5-104" target="JUYjfy3WTnw4ZEzhVMGz-121">
          <mxGeometry relative="1" as="geometry" />
        </mxCell>
        <mxCell id="kKb7byAXvP9piWJfjQB5-104" value="Trả về dữ liệu thu thập được" style="rounded=0;whiteSpace=wrap;html=1;" vertex="1" parent="WIyWlLk6GJQsqaUBKTNV-1">
          <mxGeometry x="1175" y="2070" width="120" height="60" as="geometry" />
        </mxCell>
        <mxCell id="kKb7byAXvP9piWJfjQB5-111" style="edgeStyle=orthogonalEdgeStyle;rounded=0;orthogonalLoop=1;jettySize=auto;html=1;exitX=0.5;exitY=0;exitDx=0;exitDy=0;entryX=1;entryY=0.5;entryDx=0;entryDy=0;" edge="1" parent="WIyWlLk6GJQsqaUBKTNV-1" source="kKb7byAXvP9piWJfjQB5-106" target="kKb7byAXvP9piWJfjQB5-95">
          <mxGeometry relative="1" as="geometry">
            <mxPoint x="1350" y="1510" as="targetPoint" />
            <Array as="points">
              <mxPoint x="1410" y="1510" />
              <mxPoint x="1295" y="1510" />
            </Array>
          </mxGeometry>
        </mxCell>
        <mxCell id="kKb7byAXvP9piWJfjQB5-106" value="Field++" style="rounded=0;whiteSpace=wrap;html=1;" vertex="1" parent="WIyWlLk6GJQsqaUBKTNV-1">
          <mxGeometry x="1350" y="1958.5" width="120" height="60" as="geometry" />
        </mxCell>
        <mxCell id="kKb7byAXvP9piWJfjQB5-112" value="&lt;h1 style=&quot;margin-top: 0px;&quot;&gt;Download&amp;nbsp;&lt;/h1&gt;" style="text;html=1;whiteSpace=wrap;overflow=hidden;rounded=0;" vertex="1" parent="WIyWlLk6GJQsqaUBKTNV-1">
          <mxGeometry x="310" y="1220" width="180" height="120" as="geometry" />
        </mxCell>
        <mxCell id="kKb7byAXvP9piWJfjQB5-114" value="&lt;h1 style=&quot;margin-top: 0px;&quot;&gt;Upload&lt;/h1&gt;" style="text;html=1;whiteSpace=wrap;overflow=hidden;rounded=0;" vertex="1" parent="WIyWlLk6GJQsqaUBKTNV-1">
          <mxGeometry x="310" y="50" width="180" height="120" as="geometry" />
        </mxCell>
      </root>
    </mxGraphModel>
  </diagram>
</mxfile>
